<svg xmlns="http://www.w3.org/2000/svg" viewBox="0 0 53.8 45"><defs><style>.cls-1{fill:#aaf4a5;}.cls-1,.cls-2,.cls-3{fill-rule:evenodd;}.cls-2{fill:#f4dd45;}.cls-3{fill:#dd636e;}.cls-4{fill:none;stroke:#000;stroke-linecap:round;stroke-linejoin:round;}</style></defs><title>Asset 4</title><g id="Layer_2" data-name="Layer 2"><g id="Layer_1-2" data-name="Layer 1"><polygon class="cls-1" points="48.9 13.7 4.9 13.7 4.9 44.5 48.9 44.5 48.9 13.7 48.9 13.7"/><path class="cls-2" d="M44.5,29.1a11,11,0,0,0-11-11H20.3a11,11,0,0,0-11,11h0a11,11,0,0,0,11,11H33.5a11,11,0,0,0,11-11ZM48.9.5a4.4,4.4,0,1,0,4.4,4.4A4.4,4.4,0,0,0,48.9.5ZM4.9.5A4.4,4.4,0,1,1,.5,4.9,4.4,4.4,0,0,1,4.9.5Z"/><path class="cls-3" d="M26.9,31.3a2.2,2.2,0,1,1-2.2,2.2,2.2,2.2,0,0,1,2.2-2.2Zm8.8,0a2.2,2.2,0,1,1-2.2,2.2,2.2,2.2,0,0,1,2.2-2.2Zm-17.6,0a2.2,2.2,0,1,1-2.2,2.2,2.2,2.2,0,0,1,2.2-2.2Zm11-8.8H24.7v8.8h4.4V22.5Zm8.8,0H33.5v8.8h4.4V22.5Zm-17.6,0H15.9v8.8h4.4V22.5Z"/><path class="cls-4" d="M26.35,44.5h1.1m3.85,0H48.9V13.7H4.9V44.5H22.5m22-15.4a11,11,0,0,0-11-11H20.3a11,11,0,0,0-11,11h0a11,11,0,0,0,11,11H33.5a11,11,0,0,0,11-11ZM26.9,31.3a2.2,2.2,0,1,1-2.2,2.2,2.2,2.2,0,0,1,2.2-2.2Zm8.8,0a2.2,2.2,0,1,1-2.2,2.2,2.2,2.2,0,0,1,2.2-2.2Zm-17.6,0a2.2,2.2,0,1,1-2.2,2.2,2.2,2.2,0,0,1,2.2-2.2ZM4.9.5A4.4,4.4,0,1,1,.5,4.9,4.4,4.4,0,0,1,4.9.5ZM9.3,7.83l8.8,5.87M48.9.5a4.4,4.4,0,1,0,4.4,4.4A4.4,4.4,0,0,0,48.9.5ZM44.5,7.83,35.7,13.7m-6.6,8.8H24.7v8.8h4.4V22.5Zm8.8,0H33.5v8.8h4.4V22.5Zm-17.6,0H15.9v8.8h4.4V22.5Z"/></g></g></svg>