<svg xmlns="http://www.w3.org/2000/svg" viewBox="0 0 53.8 45"><defs><style>.cls-1{fill:#dd636e;}.cls-1,.cls-2,.cls-3,.cls-4,.cls-5{fill-rule:evenodd;}.cls-2{fill:#f4dd45;}.cls-3{fill:#aaf4a5;}.cls-4{fill:#62acf6;}.cls-5{fill:#def6ff;}.cls-6{fill:none;stroke:#000;stroke-linecap:round;stroke-linejoin:round;}</style></defs><title>Asset 11</title><g id="Layer_2" data-name="Layer 2"><g id="Layer_1-2" data-name="Layer 1"><polyline class="cls-1" points="35.7 35.7 22.5 35.7 13.7 44.5 13.7 35.7 4.9 35.7 4.9 9.3 48.9 9.3 48.9 35.7 44.5 35.7"/><path class="cls-2" d="M48.9,13.7a4.4,4.4,0,0,1,0,8.8V13.7Zm-44,8.8a4.4,4.4,0,0,1,0-8.8v8.8Zm11-17.6a2.2,2.2,0,1,1-2.2,2.2,2.2,2.2,0,0,1,2.2-2.2Zm22,0a2.2,2.2,0,1,0,2.2,2.2,2.21,2.21,0,0,0-2.2-2.2Z"/><polygon class="cls-3" points="40.1 13.7 35.7 13.7 35.7 29.1 40.1 29.1 40.1 13.7 40.1 13.7"/><polygon class="cls-4" points="29.1 22.5 24.7 22.5 24.7 29.1 29.1 29.1 29.1 22.5 29.1 22.5"/><polygon class="cls-5" points="18.1 18.1 13.7 18.1 13.7 29.1 18.1 29.1 18.1 18.1 18.1 18.1"/><path class="cls-6" d="M40.65,35.7h-1.1m-3.85,0H22.5l-8.8,8.8V35.7H4.9V9.3h44V35.7H44.5m4.4-22a4.4,4.4,0,0,1,0,8.8V13.7Zm-44,8.8a4.4,4.4,0,0,1,0-8.8v8.8Zm11-17.6a2.2,2.2,0,1,1-2.2,2.2,2.2,2.2,0,0,1,2.2-2.2Zm22,0a2.2,2.2,0,1,0,2.2,2.2,2.21,2.21,0,0,0-2.2-2.2ZM13.7.5V7.1M40.1.5V7.1m4.4,22H9.3M40.1,13.7H35.7V29.1h4.4V13.7Zm-11,8.8H24.7v6.6h4.4V22.5Zm-11-4.4H13.7v11h4.4v-11Z"/></g></g></svg>