<svg xmlns="http://www.w3.org/2000/svg" viewBox="0 0 53.8 45"><defs><style>.cls-1{fill:#62acf6;}.cls-1,.cls-2,.cls-3{fill-rule:evenodd;}.cls-2{fill:#dd636e;}.cls-3{fill:#def6ff;}.cls-4{fill:none;stroke:#000;stroke-linecap:round;stroke-linejoin:round;}</style></defs><title>Asset 5</title><g id="Layer_2" data-name="Layer 2"><g id="Layer_1-2" data-name="Layer 1"><path class="cls-1" d="M48.9,22.5a22,22,0,0,0-22-22h0a22,22,0,0,0-22,22V40.1h44V22.5Z"/><path class="cls-2" d="M53.3,44.5H.5V40.1H53.3v4.4ZM26.9,9.3c9.72,0,17.6,5.92,17.6,13.2S36.62,35.7,26.9,35.7,9.3,29.79,9.3,22.5,17.19,9.3,26.9,9.3Z"/><path class="cls-3" d="M32.16,16.28a6.6,6.6,0,1,1-9.34,0,6.61,6.61,0,0,1,9.34,0Z"/><path class="cls-4" d="M26.35,44.5h1.1m3.85,0h22V40.1H.5v4.4h22m26.4-22a22,22,0,0,0-22-22h0a22,22,0,0,0-22,22V40.1h44V22.5ZM26.9,9.3c9.72,0,17.6,5.92,17.6,13.2S36.62,35.7,26.9,35.7,9.3,29.79,9.3,22.5,17.19,9.3,26.9,9.3Zm5.26,7a6.6,6.6,0,1,1-9.34,0,6.61,6.61,0,0,1,9.34,0ZM19.71,28.72l3.11-3.11M3.76,2.85A4.4,4.4,0,1,1,.65,8.24M50.19,2.85A4.4,4.4,0,1,0,53.3,8.24"/></g></g></svg>