<svg xmlns="http://www.w3.org/2000/svg" viewBox="0 0 45 53.8"><defs><style>.cls-1{fill:#dd636e;}.cls-1,.cls-2,.cls-4{stroke:#000;stroke-linecap:round;stroke-linejoin:round;}.cls-1,.cls-2,.cls-3{fill-rule:evenodd;}.cls-2{fill:#62acf6;}.cls-3{fill:#f4dd45;}.cls-4{fill:none;}</style></defs><title>Asset 13</title><g id="Layer_2" data-name="Layer 2"><g id="Layer_1-2" data-name="Layer 1"><polygon class="cls-1" points="24.7 13.7 20.3 13.7 20.3 53.3 24.7 53.3 24.7 13.7 24.7 13.7"/><path class="cls-2" d="M20.3,15.9.5,13.7V48.9l19.8,2.2V15.9Zm4.4,0,19.8-2.2V48.9L24.7,51.1V15.9Z"/><path class="cls-3" d="M20.3.5H11.5V4.9a4.4,4.4,0,0,0,8.8,0V.5ZM33.5.5H24.7V4.9a4.4,4.4,0,1,0,8.8,0V.5Z"/><path class="cls-4" d="M24.7,13.7H20.3V53.3h4.4V13.7ZM.5,39.55v1.1m0,3.85v4.4l19.8,2.2V15.9L.5,13.7v22M24.7,15.9l19.8-2.2V48.9L24.7,51.1V15.9ZM20.3.5H11.5V4.9a4.4,4.4,0,0,0,8.8,0V.5ZM33.5.5H24.7V4.9a4.4,4.4,0,1,0,8.8,0V.5ZM24.7.5H20.3M11.5.5,4.9,4.9V6.14M33.5.5l6.6,4.4V6.14"/></g></g></svg>