<svg xmlns="http://www.w3.org/2000/svg" viewBox="0 0 53.8 45"><defs><style>.cls-1{fill:#f4dd45;}.cls-1,.cls-2,.cls-3{fill-rule:evenodd;}.cls-2{fill:#62acf6;}.cls-2,.cls-3,.cls-4{stroke:#000;stroke-linecap:round;stroke-linejoin:round;}.cls-3{fill:#aaf4a5;}.cls-4{fill:none;}</style></defs><title>Asset 8</title><g id="Layer_2" data-name="Layer 2"><g id="Layer_1-2" data-name="Layer 1"><polygon class="cls-1" points="4.9 44.5 48.9 44.5 48.9 13.7 4.9 13.7 4.9 44.5 4.9 44.5"/><path class="cls-2" d="M44.5,29.1a11,11,0,0,0-11-11H20.3a11,11,0,0,0-11,11h0a11,11,0,0,0,11,11H33.5a11,11,0,0,0,11-11Z"/><path class="cls-3" d="M4.9.5A4.4,4.4,0,1,1,.5,4.9,4.4,4.4,0,0,1,4.9.5Zm44,0a4.4,4.4,0,1,0,4.4,4.4A4.4,4.4,0,0,0,48.9.5Z"/><path class="cls-4" d="M26.35,44.5h1.1m3.85,0H48.9V13.7H4.9V44.5H22.5m22-15.4a11,11,0,0,0-11-11H20.3a11,11,0,0,0-11,11h0a11,11,0,0,0,11,11H33.5a11,11,0,0,0,11-11ZM21.4,31.3h4.4l-4.4,4.4h4.4M4.9.5A4.4,4.4,0,1,1,.5,4.9,4.4,4.4,0,0,1,4.9.5ZM9.3,7.83l8.8,5.87M48.9.5a4.4,4.4,0,1,0,4.4,4.4A4.4,4.4,0,0,0,48.9.5ZM44.5,7.83,35.7,13.7m-9,8.8h5.7l-5.7,5.7h5.7"/></g></g></svg>