<svg xmlns="http://www.w3.org/2000/svg" viewBox="0 0 45 53.8"><defs><style>.cls-1{fill:#dd636e;}.cls-1,.cls-2,.cls-3{fill-rule:evenodd;}.cls-2{fill:#def6ff;}.cls-3{fill:#62acf6;}.cls-4{fill:none;stroke:#000;stroke-linecap:round;stroke-linejoin:round;}</style></defs><title>Asset 20</title><g id="Layer_2" data-name="Layer 2"><g id="Layer_1-2" data-name="Layer 1"><polygon class="cls-1" points="29.1 48.9 15.9 48.9 15.9 53.3 29.1 53.3 29.1 48.9 29.1 48.9"/><path class="cls-2" d="M9.38,31.33a41,41,0,0,1,12-29.7L22.5.5s.42.41,1.13,1.13a41,41,0,0,1,12,29.7v0l8.87,8.8-4.4,8.8H4.9L.5,40.1l8.88-8.8v0Z"/><path class="cls-3" d="M22.5,22.5a8.8,8.8,0,1,1-8.8,8.8,8.8,8.8,0,0,1,8.8-8.8Z"/><path class="cls-4" d="M15.51,9c.08-.14.17-.28.26-.41m1.95-2.81a41.06,41.06,0,0,1,3.65-4.18L22.5.5s.42.41,1.13,1.13A40.93,40.93,0,0,1,31.3,48.9H13.7a40.92,40.92,0,0,1,0-36.63M29.1,48.9H15.9v4.4H29.1V48.9ZM9.38,31.3.5,40.1l4.4,8.8h8.8M35.63,31.3l8.87,8.8-4.4,8.8H31.3M22.5,22.5a8.8,8.8,0,1,1-8.8,8.8,8.8,8.8,0,0,1,8.8-8.8Z"/></g></g></svg>