<svg xmlns="http://www.w3.org/2000/svg" viewBox="0 0 53.8 45"><defs><style>.cls-1{fill:#f4dd45;}.cls-1,.cls-2,.cls-3,.cls-4{fill-rule:evenodd;}.cls-2{fill:#def6ff;}.cls-3{fill:#aaf4a5;}.cls-4{fill:#dd636e;}.cls-5{fill:none;stroke:#000;stroke-linecap:round;stroke-linejoin:round;}</style></defs><title>Asset 22</title><g id="Layer_2" data-name="Layer 2"><g id="Layer_1-2" data-name="Layer 1"><path class="cls-1" d="M26.9.5a22,22,0,1,1-22,22,22,22,0,0,1,22-22Z"/><path class="cls-2" d="M26.9,4.9A17.6,17.6,0,1,1,9.3,22.5,17.61,17.61,0,0,1,26.9,4.9Z"/><path class="cls-3" d="M4.11,20.06A5.56,5.56,0,0,1,6.06,9.3,5.65,5.65,0,0,1,8,9.63L4.11,20.06Zm45.58,0A5.56,5.56,0,0,0,47.75,9.3a5.66,5.66,0,0,0-1.9.33l3.84,10.43Z"/><path class="cls-4" d="M26.9,31.3a2.2,2.2,0,1,1-2.2,2.2,2.2,2.2,0,0,1,2.2-2.2Zm0-8.8a4.4,4.4,0,1,0-4.4-4.4H18.1a8.8,8.8,0,1,1,11,8.52V29.1H24.7V22.5Z"/><path class="cls-5" d="M15.13,3.91l.49-.3m3-1.49A21.79,21.79,0,0,1,26.9.5,22,22,0,1,1,12.37,6M26.9,4.9A17.6,17.6,0,1,1,9.3,22.5,17.61,17.61,0,0,1,26.9,4.9Zm0,26.4a2.2,2.2,0,1,1-2.2,2.2,2.2,2.2,0,0,1,2.2-2.2ZM4.11,20.06A5.56,5.56,0,0,1,6.06,9.3,5.65,5.65,0,0,1,8,9.63M49.69,20.06A5.56,5.56,0,0,0,47.75,9.3a5.66,5.66,0,0,0-1.9.33M26.9,22.5a4.4,4.4,0,1,0-4.4-4.4H18.1a8.8,8.8,0,1,1,11,8.52V29.1H24.7V22.5Z"/></g></g></svg>