<svg xmlns="http://www.w3.org/2000/svg" viewBox="0 0 45 53.8"><defs><style>.cls-1{fill:#f4dd45;}.cls-1,.cls-3{stroke:#000;stroke-linecap:round;stroke-linejoin:round;}.cls-1,.cls-2{fill-rule:evenodd;}.cls-2{fill:#62acf6;}.cls-3{fill:none;}</style></defs><title>Asset 10</title><g id="Layer_2" data-name="Layer 2"><g id="Layer_1-2" data-name="Layer 1"><path class="cls-1" d="M9.31,40.1a22,22,0,1,1,26.39,0Z"/><path class="cls-2" d="M26.9,48.9H18.1a4.4,4.4,0,0,0,8.8,0Zm8.8-8.8H9.3l4.4,8.8H31.3l4.4-8.8Z"/><path class="cls-3" d="M9.31,40.1A22,22,0,0,1,6.52,7.38M8.86,5.25l.45-.35m2.8-1.79A21.78,21.78,0,0,1,22.5.5,22,22,0,0,1,35.7,40.1M22.5,28.37a2.2,2.2,0,1,1-2.2,2.2,2.2,2.2,0,0,1,2.2-2.2ZM25.43,24h0a4.86,4.86,0,0,0-5.86,0h0m8.8-4.4h0a9.77,9.77,0,0,0-11.73,0h0m14.67-4.4h0a14.67,14.67,0,0,0-17.6,0h0m22,24.93H9.3l4.4,8.8H31.3l4.4-8.8Zm-8.8,8.8H18.1a4.4,4.4,0,0,0,8.8,0Z"/></g></g></svg>