<svg xmlns="http://www.w3.org/2000/svg" viewBox="0 0 53.8 45"><defs><style>.cls-1{fill:#aaf4a5;}.cls-1,.cls-2,.cls-3,.cls-4{fill-rule:evenodd;}.cls-2{fill:#def6ff;}.cls-3{fill:#f4dd45;}.cls-4{fill:#dd636e;}.cls-5{fill:none;stroke:#000;stroke-linecap:round;stroke-linejoin:round;}</style></defs><title>Asset 24</title><g id="Layer_2" data-name="Layer 2"><g id="Layer_1-2" data-name="Layer 1"><path class="cls-1" d="M26.9.5a22,22,0,1,1-22,22,22,22,0,0,1,22-22Z"/><path class="cls-2" d="M26.9,4.9A17.6,17.6,0,1,1,9.3,22.5,17.61,17.61,0,0,1,26.9,4.9Z"/><path class="cls-3" d="M40.1,22.5a4.4,4.4,0,0,0-4.4-4.4H18.1a4.4,4.4,0,0,0,0,8.8H35.7a4.4,4.4,0,0,0,4.4-4.4Z"/><path class="cls-4" d="M31.3,18.1l-4.4,8.8H18.1a4.4,4.4,0,0,1-4.4-4.39h0a4.4,4.4,0,0,1,4.4-4.4Zm-27.19,2A5.56,5.56,0,0,1,6.06,9.3,5.65,5.65,0,0,1,8,9.63L4.11,20.06Zm45.58,0A5.56,5.56,0,0,0,47.75,9.3a5.66,5.66,0,0,0-1.9.33l3.84,10.43Z"/><path class="cls-5" d="M15.13,3.91l.49-.3m3-1.49A21.79,21.79,0,0,1,26.9.5,22,22,0,1,1,12.37,6M26.9,4.9A17.6,17.6,0,1,1,9.3,22.5,17.61,17.61,0,0,1,26.9,4.9ZM40.1,22.5a4.4,4.4,0,0,0-4.4-4.4H18.1a4.4,4.4,0,0,0,0,8.8H35.7a4.4,4.4,0,0,0,4.4-4.4ZM22.5,18.1l-4.4,8.8m8.8-8.8-4.4,8.8m8.8-8.8-4.4,8.8m-8.8-8.8-3.39,6.78M4.11,20.06A5.56,5.56,0,0,1,6.06,9.3,5.65,5.65,0,0,1,8,9.63M49.69,20.06A5.56,5.56,0,0,0,47.75,9.3a5.66,5.66,0,0,0-1.9.33"/></g></g></svg>