<svg xmlns="http://www.w3.org/2000/svg" viewBox="0 0 53.8 45"><defs><style>.cls-1{fill:#aaf4a5;}.cls-1,.cls-2,.cls-3{fill-rule:evenodd;}.cls-2{fill:#62acf6;}.cls-3{fill:#f4dd45;}.cls-4{fill:none;stroke:#000;stroke-linecap:round;stroke-linejoin:round;}</style></defs><title>Asset 15</title><g id="Layer_2" data-name="Layer 2"><g id="Layer_1-2" data-name="Layer 1"><polygon class="cls-1" points="13.7 35.7 4.9 35.7 4.9 9.3 48.9 9.3 48.9 35.7 22.5 35.7 13.7 44.5 13.7 35.7 13.7 35.7"/><path class="cls-2" d="M48.9,13.7a4.4,4.4,0,0,1,0,8.8V13.7Zm-44,8.8a4.4,4.4,0,0,1,0-8.8v8.8Zm11-17.6a2.2,2.2,0,1,1-2.2,2.2,2.2,2.2,0,0,1,2.2-2.2Zm22,0a2.2,2.2,0,1,0,2.2,2.2,2.21,2.21,0,0,0-2.2-2.2Z"/><path class="cls-3" d="M35.7,24.7H9.3v4.4H35.7V24.7Zm8.8-8.8H9.3v4.4H44.5V15.9Z"/><path class="cls-4" d="M40.65,35.7h-1.1m-3.85,0H22.5l-8.8,8.8V35.7H4.9V9.3h44V35.7H44.5m4.4-22a4.4,4.4,0,0,1,0,8.8V13.7Zm-44,8.8a4.4,4.4,0,0,1,0-8.8v8.8Zm11-17.6a2.2,2.2,0,1,1-2.2,2.2,2.2,2.2,0,0,1,2.2-2.2Zm22,0a2.2,2.2,0,1,0,2.2,2.2,2.21,2.21,0,0,0-2.2-2.2ZM13.7.5V7.1M40.1.5V7.1m4.4,8.8H9.3v4.4H44.5V15.9Zm-8.8,8.8H9.3v4.4H35.7V24.7Z"/></g></g></svg>