<svg xmlns="http://www.w3.org/2000/svg" viewBox="0 0 53.8 45"><defs><style>.cls-1{fill:#f4dd45;}.cls-1,.cls-2,.cls-3,.cls-4{fill-rule:evenodd;}.cls-2{fill:#aaf4a5;}.cls-3{fill:#def6ff;}.cls-4{fill:#dd636e;}.cls-5{fill:none;stroke:#000;stroke-linecap:round;stroke-linejoin:round;}</style></defs><title>Asset 1</title><g id="Layer_2" data-name="Layer 2"><g id="Layer_1-2" data-name="Layer 1"><polygon class="cls-1" points="53.3 44.5 0.5 44.5 0.5 40.1 53.3 40.1 53.3 44.5 53.3 44.5"/><path class="cls-2" d="M48.9,22.5a22,22,0,0,0-22-22h0a22,22,0,0,0-22,22V40.1h44V22.5Z"/><path class="cls-3" d="M26.9,9.3c9.72,0,17.6,5.92,17.6,13.2S36.62,35.7,26.9,35.7,9.3,29.79,9.3,22.5,17.19,9.3,26.9,9.3Z"/><path class="cls-4" d="M26.9,19.61a2.31,2.31,0,0,1,3.71-.91c.92.91.92,2.73,0,4.56A10.87,10.87,0,0,1,26.9,26.9a10.84,10.84,0,0,1-3.7-3.64c-.93-1.83-.93-3.65,0-4.56a2.31,2.31,0,0,1,3.7.91Z"/><path class="cls-5" d="M26.35,44.5h1.1m3.85,0h22V40.1H.5v4.4h22m26.4-22a22,22,0,0,0-22-22h0a22,22,0,0,0-22,22V40.1h44V22.5ZM26.9,9.3c9.72,0,17.6,5.92,17.6,13.2S36.62,35.7,26.9,35.7,9.3,29.79,9.3,22.5,17.19,9.3,26.9,9.3Zm0,10.31a2.31,2.31,0,0,1,3.71-.91c.92.91.92,2.73,0,4.56A10.87,10.87,0,0,1,26.9,26.9a10.84,10.84,0,0,1-3.7-3.64c-.93-1.83-.93-3.65,0-4.56a2.31,2.31,0,0,1,3.7.91Zm7.62,7.29a8.79,8.79,0,0,1-7.62,4.4M19.28,18.1a8.8,8.8,0,0,1,7.62-4.4M3.76,2.85A4.4,4.4,0,1,1,.65,8.24M50.19,2.85A4.4,4.4,0,1,0,53.3,8.24"/></g></g></svg>