<svg xmlns="http://www.w3.org/2000/svg" viewBox="0 0 53.8 45"><defs><style>.cls-1{fill:#def6ff;}.cls-1,.cls-2,.cls-3,.cls-4{fill-rule:evenodd;}.cls-2{fill:#aaf4a5;}.cls-3{fill:#f4dd45;}.cls-4{fill:#dd636e;}.cls-5{fill:none;stroke:#000;stroke-linecap:round;stroke-linejoin:round;}</style></defs><title>Asset 19</title><g id="Layer_2" data-name="Layer 2"><g id="Layer_1-2" data-name="Layer 1"><polygon class="cls-1" points="53.3 0.5 0.5 0.5 0.5 35.7 53.3 35.7 53.3 0.5 53.3 0.5"/><path class="cls-2" d="M41.57,19.57A14.67,14.67,0,0,0,26.9,4.9h0A14.67,14.67,0,0,0,12.23,19.56V31.3H41.57V19.57Z"/><path class="cls-3" d="M26.9,10.77c6.48,0,11.74,3.94,11.74,8.8s-5.26,8.8-11.74,8.8-11.73-3.95-11.73-8.8,5.25-8.8,11.73-8.8Z"/><polygon class="cls-4" points="40.1 44.5 35.7 35.7 18.1 35.7 13.7 44.5 40.1 44.5 40.1 44.5"/><path class="cls-5" d="M44.5,44.5H9.3M27.45.5h-1.1M22.5.5H.5V35.7H53.3V.5h-22M41.57,19.57A14.67,14.67,0,0,0,26.9,4.9h0A14.67,14.67,0,0,0,12.23,19.56V31.3H41.57V19.57ZM26.9,10.77c6.48,0,11.74,3.94,11.74,8.8s-5.26,8.8-11.74,8.8-11.73-3.95-11.73-8.8,5.25-8.8,11.73-8.8Zm5.87,12.46H21M11.47,6.47A2.93,2.93,0,1,1,9.4,10.06m33-3.59a2.93,2.93,0,1,0,2.07,3.59m0,21.24H9.3M40.1,44.5l-4.4-8.8H18.1l-4.4,8.8Z"/></g></g></svg>