<svg xmlns="http://www.w3.org/2000/svg" viewBox="0 0 53.8 53.8"><defs><style>.cls-1{fill:#dd636e;}.cls-1,.cls-2,.cls-3{fill-rule:evenodd;}.cls-2{fill:#def6ff;}.cls-3{fill:#aaf4a5;}.cls-4{fill:none;stroke:#000;stroke-linecap:round;stroke-linejoin:round;}</style></defs><title>Asset 9</title><g id="Layer_2" data-name="Layer 2"><g id="Layer_1-2" data-name="Layer 1"><path class="cls-1" d="M30.72.78a26.43,26.43,0,0,0-7.64,0L21.83,5A22.41,22.41,0,0,0,15,7.86l-3.9-2.13a26.57,26.57,0,0,0-5.4,5.4L7.86,15A22.41,22.41,0,0,0,5,21.83L.78,23.08a26.43,26.43,0,0,0,0,7.64L5,32a22.47,22.47,0,0,0,2.82,6.81L5.73,42.67a26.37,26.37,0,0,0,5.4,5.41L15,45.94a22.16,22.16,0,0,0,6.8,2.82L23.08,53a26.43,26.43,0,0,0,7.64,0L32,48.76a22.22,22.22,0,0,0,6.81-2.82l3.89,2.14a26.17,26.17,0,0,0,5.41-5.41l-2.14-3.89A22.22,22.22,0,0,0,48.76,32L53,30.72a26.43,26.43,0,0,0,0-7.64l-4.27-1.25A22.16,22.16,0,0,0,45.94,15l2.14-3.9a26.37,26.37,0,0,0-5.41-5.4L38.78,7.86A22.47,22.47,0,0,0,32,5L30.72.78Z"/><path class="cls-2" d="M26.9,9.3A17.6,17.6,0,1,1,9.3,26.9,17.61,17.61,0,0,1,26.9,9.3Z"/><path class="cls-3" d="M37.9,22.5h-22V32.83c0,2.72,2.46,4.91,5.5,4.91h11a5.85,5.85,0,0,0,3.89-1.43,4.66,4.66,0,0,0,1.61-3.47V22.5Zm-11-7.28a2.2,2.2,0,1,1-2.2,2.2,2.2,2.2,0,0,1,2.2-2.2Z"/><path class="cls-4" d="M5,21.83.78,23.08a26.43,26.43,0,0,0,0,7.64L5,32a22.47,22.47,0,0,0,2.82,6.81L5.73,42.67a26.37,26.37,0,0,0,5.4,5.41L15,45.94a22.16,22.16,0,0,0,6.8,2.82L23.08,53a26.43,26.43,0,0,0,7.64,0L32,48.76a22.22,22.22,0,0,0,6.81-2.82l3.89,2.14a26.17,26.17,0,0,0,5.41-5.41l-2.14-3.89a22.54,22.54,0,0,0,1.61-3.08M48.76,32,53,30.72a26.43,26.43,0,0,0,0-7.64l-4.27-1.25A22.16,22.16,0,0,0,45.94,15l2.14-3.9a26.37,26.37,0,0,0-5.41-5.4L38.78,7.86A22.47,22.47,0,0,0,32,5L30.72.78a26.43,26.43,0,0,0-7.64,0L21.83,5A22.41,22.41,0,0,0,15,7.86l-3.9-2.13a26.57,26.57,0,0,0-5.4,5.4L7.86,15a22.37,22.37,0,0,0-1.6,3.07M26.9,9.3A17.6,17.6,0,1,1,9.3,26.9,17.61,17.61,0,0,1,26.9,9.3Zm11,13.2h-22V32.83c0,2.72,2.46,4.91,5.5,4.91h11a5.85,5.85,0,0,0,3.89-1.43,4.66,4.66,0,0,0,1.61-3.47V22.5ZM26.9,22v-2m0-4.85a2.2,2.2,0,1,1-2.2,2.2,2.2,2.2,0,0,1,2.2-2.2ZM21.32,26.9l2.47,1.63m8.69-1.63L30,28.53m.17,5.39H23.61"/></g></g></svg>