<svg xmlns="http://www.w3.org/2000/svg" viewBox="0 0 36.2 53.8"><defs><style>.cls-1{fill:#def6ff;}.cls-1,.cls-2,.cls-3{fill-rule:evenodd;}.cls-2{fill:#dd636e;}.cls-3{fill:#62acf6;}.cls-4{fill:none;stroke:#000;stroke-linecap:round;stroke-linejoin:round;}</style></defs><title>Asset 14</title><g id="Layer_2" data-name="Layer 2"><g id="Layer_1-2" data-name="Layer 1"><polygon class="cls-1" points="35.7 0.5 0.5 0.5 0.5 53.3 35.7 53.3 35.7 0.5 35.7 0.5"/><path class="cls-2" d="M22.5.5H13.7a4.4,4.4,0,0,0,4.4,4.4h0A4.4,4.4,0,0,0,22.5.5Z"/><path class="cls-3" d="M18.1,40.1a4.4,4.4,0,0,0-4.4-4.4H9.3a4.4,4.4,0,1,0,0,8.8h4.4a4.4,4.4,0,0,0,4.4-4.4Zm13.2-8.8a4.4,4.4,0,1,0-4.4,4.4,4.4,4.4,0,0,0,4.4-4.4ZM26.9,18.1a4.4,4.4,0,0,0-4.4-4.4H9.3a4.4,4.4,0,0,0,0,8.8H22.5a4.4,4.4,0,0,0,4.4-4.4Z"/><path class="cls-4" d="M17.55,53.3h1.1m3.85,0H35.7V.5H.5V53.3H13.7M22.5.5H13.7a4.4,4.4,0,0,0,4.4,4.4h0A4.4,4.4,0,0,0,22.5.5Zm4.4,17.6a4.4,4.4,0,0,0-4.4-4.4H9.3a4.4,4.4,0,0,0,0,8.8H22.5a4.4,4.4,0,0,0,4.4-4.4Zm4.4,13.2a4.4,4.4,0,1,0-4.4,4.4,4.4,4.4,0,0,0,4.4-4.4ZM18.1,40.1a4.4,4.4,0,0,0-4.4-4.4H9.3a4.4,4.4,0,1,0,0,8.8h4.4a4.4,4.4,0,0,0,4.4-4.4ZM4.9,48.9H31.3M4.9,9.3H31.3"/></g></g></svg>