<svg xmlns="http://www.w3.org/2000/svg" viewBox="0 0 40.6 53.8"><defs><style>.cls-1{fill:#def6ff;}.cls-1,.cls-2,.cls-3,.cls-4{fill-rule:evenodd;}.cls-2{fill:#62acf6;}.cls-3{fill:#dd636e;}.cls-4{fill:#f4dd45;}.cls-5{fill:none;stroke:#000;stroke-linecap:round;stroke-linejoin:round;}</style></defs><title>Asset 6</title><g id="Layer_2" data-name="Layer 2"><g id="Layer_1-2" data-name="Layer 1"><polygon class="cls-1" points="40.1 7.1 0.5 7.1 0.5 46.7 40.1 46.7 40.1 7.1 40.1 7.1"/><path class="cls-2" d="M33.13,28.18A12.83,12.83,0,0,0,20.3,15.35h0A12.83,12.83,0,0,0,7.47,28.18V38.45H33.13V28.18Z"/><path class="cls-3" d="M20.3,20.48c5.67,0,10.27,3.46,10.27,7.7S26,35.89,20.3,35.89,10,32.44,10,28.18s4.6-7.7,10.27-7.7Z"/><path class="cls-4" d="M33.5,46.7v6.6H7.1V46.7ZM33.5.5V7.1H7.1V.5Z"/><path class="cls-5" d="M40.1,7.1H.5V46.7H40.1V7.1Zm-7,21.08A12.83,12.83,0,0,0,20.3,15.35h0A12.83,12.83,0,0,0,7.47,28.18V38.45H33.13V28.18ZM20.3,20.48c5.67,0,10.27,3.46,10.27,7.7S26,35.89,20.3,35.89,10,32.44,10,28.18s4.6-7.7,10.27-7.7Zm5.13,10.91H15.17M6.8,16.72A2.57,2.57,0,1,1,5,19.87m28.9-3.15a2.57,2.57,0,1,0,1.81,3.15m0,18.58H4.9m16,14.85h-1.1m-3.85,0H7.1V46.7H33.5v6.6H24.7M33.5.5V7.1H7.1V.5Z"/></g></g></svg>