<svg xmlns="http://www.w3.org/2000/svg" viewBox="0 0 36.2 53.8"><defs><style>.cls-1{fill:#f4dd45;}.cls-1,.cls-3,.cls-4{stroke:#000;stroke-linecap:round;stroke-linejoin:round;}.cls-1,.cls-2,.cls-3{fill-rule:evenodd;}.cls-2{fill:#dd636e;}.cls-3{fill:#def6ff;}.cls-4{fill:none;}</style></defs><title>Asset 16</title><g id="Layer_2" data-name="Layer 2"><g id="Layer_1-2" data-name="Layer 1"><path class="cls-1" d="M35.7,9.3H.5V26.9A17.6,17.6,0,0,0,18.1,44.5h0A17.6,17.6,0,0,0,35.7,26.9V9.3Z"/><path class="cls-2" d="M20.3,44.5H15.9v8.8h4.4V44.5ZM9.3,2.7a2.2,2.2,0,0,0-4.4,0V9.3H9.3V2.7Zm22,0a2.2,2.2,0,1,0-4.4,0V9.3h4.4V2.7Z"/><polygon class="cls-3" points="13.7 13.7 9.3 26.9 15.9 26.9 13.7 38.98 26.9 26.9 22.5 26.9 26.9 13.7 13.7 13.7 13.7 13.7"/><path class="cls-4" d="M.5,22v1.1m0,3.85A17.6,17.6,0,0,0,18.1,44.5h0A17.6,17.6,0,0,0,35.7,26.9V9.3H.5v8.8M20.3,44.5H15.9v8.8h4.4V44.5ZM9.3,2.7a2.2,2.2,0,0,0-4.4,0V9.3H9.3V2.7Zm22,0a2.2,2.2,0,1,0-4.4,0V9.3h4.4V2.7Zm-17.6,11L9.3,26.9h6.6L13.7,39,26.9,26.9H22.5l4.4-13.2Z"/></g></g></svg>