<svg xmlns="http://www.w3.org/2000/svg" viewBox="0 0 53.8 45"><defs><style>.cls-1{fill:#f4dd45;}.cls-1,.cls-2,.cls-3{fill-rule:evenodd;}.cls-2{fill:#def6ff;}.cls-3{fill:#dd636e;}.cls-4{fill:none;stroke:#000;stroke-linecap:round;stroke-linejoin:round;}</style></defs><title>Asset 2</title><g id="Layer_2" data-name="Layer 2"><g id="Layer_1-2" data-name="Layer 1"><polygon class="cls-1" points="4.9 44.5 48.9 44.5 48.9 13.7 4.9 13.7 4.9 44.5 4.9 44.5"/><path class="cls-2" d="M44.5,29.1a11,11,0,0,0-11-11H20.3a11,11,0,0,0-11,11h0a11,11,0,0,0,11,11H33.5a11,11,0,0,0,11-11Z"/><path class="cls-3" d="M4.9.5A4.4,4.4,0,1,1,.5,4.9,4.4,4.4,0,0,1,4.9.5Zm44,0a4.4,4.4,0,1,0,4.4,4.4A4.4,4.4,0,0,0,48.9.5Z"/><path class="cls-4" d="M26.35,44.5h1.1m3.85,0H48.9V13.7H4.9V44.5H22.5m22-15.4a11,11,0,0,0-11-11H20.3a11,11,0,0,0-11,11h0a11,11,0,0,0,11,11H33.5a11,11,0,0,0,11-11ZM20.3,26.84a2.15,2.15,0,0,0-2.14-2.14H15.9v4.4h2.15a2.25,2.25,0,0,0,2.25-2.25Zm0,4.41a2.16,2.16,0,0,0-.63-1.52,2.13,2.13,0,0,0-1.51-.63H15.9v4.4h2.15a2.25,2.25,0,0,0,2.25-2.25Zm4.4-6.55,2.2,2.2,2.2-2.2-2.2,2.2v6.6M4.9.5A4.4,4.4,0,1,1,.5,4.9,4.4,4.4,0,0,1,4.9.5ZM9.3,7.83l8.8,5.87M48.9.5a4.4,4.4,0,1,0,4.4,4.4A4.4,4.4,0,0,0,48.9.5ZM44.5,7.83,35.7,13.7m2.2,11H33.5v4.4h0v4.4h4.4"/></g></g></svg>