<svg xmlns="http://www.w3.org/2000/svg" viewBox="0 0 53.8 45"><defs><style>.cls-1{fill:#62acf6;}.cls-1,.cls-2,.cls-3{fill-rule:evenodd;}.cls-2{fill:#def6ff;}.cls-3{fill:#f4dd45;}.cls-4{fill:none;stroke:#000;stroke-linecap:round;stroke-linejoin:round;}</style></defs><title>Asset 17</title><g id="Layer_2" data-name="Layer 2"><g id="Layer_1-2" data-name="Layer 1"><path class="cls-1" d="M11.5,44.5A11,11,0,0,1,6.08,23.93a12.06,12.06,0,0,1,4.64-8.22,12.45,12.45,0,0,1-.08-1.5A13.71,13.71,0,0,1,38,13.35a7.91,7.91,0,0,1,1.63-.16,8.37,8.37,0,0,1,7.57,11.92A7.9,7.9,0,0,1,48.9,30a8.2,8.2,0,0,1-.17,1.66,6.6,6.6,0,0,1-2,12.88Z"/><path class="cls-2" d="M26.9,14.07A12.84,12.84,0,1,1,14.07,26.9,12.84,12.84,0,0,1,26.9,14.07Z"/><path class="cls-3" d="M34.6,26.9A2.57,2.57,0,0,0,32,24.33H21.77a2.57,2.57,0,0,0,0,5.14H32A2.57,2.57,0,0,0,34.6,26.9Zm5.6-1.42a3.24,3.24,0,0,0-1.14-6.28,3.07,3.07,0,0,0-1.1.2l2.24,6.08Zm-26.59,0a3.24,3.24,0,0,1,1.13-6.28,3.17,3.17,0,0,1,1.11.2l-2.24,6.08Z"/><path class="cls-4" d="M27.45,44.5h-1.1m-3.85,0h-11A11,11,0,0,1,6.08,23.93a12.06,12.06,0,0,1,4.64-8.22,12.45,12.45,0,0,1-.08-1.5A13.71,13.71,0,0,1,38,13.35a7.91,7.91,0,0,1,1.63-.16,8.37,8.37,0,0,1,7.57,11.92A7.9,7.9,0,0,1,48.9,30a8.2,8.2,0,0,1-.17,1.66,6.6,6.6,0,0,1-2,12.88H31.3M26.9,14.07A12.84,12.84,0,1,1,14.07,26.9,12.84,12.84,0,0,1,26.9,14.07Zm0-4.77v8.8m7.7,8.8A2.57,2.57,0,0,0,32,24.33H21.77a2.57,2.57,0,0,0,0,5.14H32A2.57,2.57,0,0,0,34.6,26.9Zm-21-1.42a3.24,3.24,0,0,1,1.13-6.28,3.17,3.17,0,0,1,1.11.2M40.2,25.48a3.24,3.24,0,0,0-1.14-6.28,3.07,3.07,0,0,0-1.1.2"/></g></g></svg>