<svg xmlns="http://www.w3.org/2000/svg" viewBox="0 0 53.8 45"><defs><style>.cls-1{fill:#aaf4a5;}.cls-1,.cls-2,.cls-3,.cls-4{fill-rule:evenodd;}.cls-2{fill:#f4dd45;}.cls-3{fill:#dd636e;}.cls-4{fill:#62acf6;}.cls-5{fill:none;stroke:#000;stroke-linecap:round;stroke-linejoin:round;}</style></defs><title>Asset 21</title><g id="Layer_2" data-name="Layer 2"><g id="Layer_1-2" data-name="Layer 1"><path class="cls-1" d="M48.9,9.3H4.9V33.5a11,11,0,0,0,11,11h22a11,11,0,0,0,11-11V9.3Z"/><path class="cls-2" d="M4.9,22.5a4.4,4.4,0,0,0,0,8.8V22.5Zm44,0a4.4,4.4,0,0,1,0,8.8V22.5Z"/><path class="cls-3" d="M44.5,18.1a2.2,2.2,0,0,0-2.2-2.2H11.5a2.21,2.21,0,0,0-2.2,2.2V35.7a2.2,2.2,0,0,0,2.2,2.2H42.3a2.19,2.19,0,0,0,2.2-2.2V18.1Z"/><path class="cls-4" d="M35.7,33.5H18.1a4.4,4.4,0,0,1,4.4-4.4h8.8a4.4,4.4,0,0,1,4.4,4.4ZM26.9.5a2.2,2.2,0,1,1-2.2,2.2A2.2,2.2,0,0,1,26.9.5Z"/><path class="cls-5" d="M26.35,44.5h1.1m3.85,0h6.61a11,11,0,0,0,11-11V9.3H4.9V33.5a11,11,0,0,0,11,11h6.6M4.9,22.5a4.4,4.4,0,0,0,0,8.8V22.5Zm44,0a4.4,4.4,0,0,1,0,8.8V22.5ZM26.9.5a2.2,2.2,0,1,1-2.2,2.2A2.2,2.2,0,0,1,26.9.5Zm0,8.8V4.9M13.7,20.3l4.4,4.4m17.6-4.4,4.4,4.4m-22-4.4-4.4,4.4m26.4-4.4-4.4,4.4m0,8.8H18.1a4.4,4.4,0,0,1,4.4-4.4h8.8a4.4,4.4,0,0,1,4.4,4.4Zm8.8-15.4a2.2,2.2,0,0,0-2.2-2.2H11.5a2.21,2.21,0,0,0-2.2,2.2V35.7a2.2,2.2,0,0,0,2.2,2.2H42.3a2.19,2.19,0,0,0,2.2-2.2V18.1Z"/></g></g></svg>