<svg xmlns="http://www.w3.org/2000/svg" viewBox="0 0 53.8 45"><defs><style>.cls-1{fill:#62acf6;}.cls-1,.cls-2,.cls-3,.cls-4{fill-rule:evenodd;}.cls-2{fill:#aaf4a5;}.cls-3{fill:#def6ff;}.cls-4{fill:#f4dd45;}.cls-5{fill:none;stroke:#000;stroke-linecap:round;stroke-linejoin:round;}</style></defs><title>Asset 23</title><g id="Layer_2" data-name="Layer 2"><g id="Layer_1-2" data-name="Layer 1"><path class="cls-1" d="M31.3,44.5h6.61a11,11,0,0,0,11-11V9.3H4.9V33.5a11,11,0,0,0,11,11h6.6"/><path class="cls-2" d="M4.9,22.5a4.4,4.4,0,0,0,0,8.8V22.5Zm44,0a4.4,4.4,0,0,1,0,8.8V22.5ZM26.9.5a2.2,2.2,0,1,1-2.2,2.2A2.2,2.2,0,0,1,26.9.5Z"/><path class="cls-3" d="M44.5,18.1a2.2,2.2,0,0,0-2.2-2.2H11.5a2.21,2.21,0,0,0-2.2,2.2V35.7a2.2,2.2,0,0,0,2.2,2.2H42.3a2.19,2.19,0,0,0,2.2-2.2V18.1Z"/><polygon class="cls-4" points="35.7 21.4 18.1 21.4 18.1 32.4 35.7 32.4 35.7 21.4 35.7 21.4"/><path class="cls-5" d="M26.35,44.5h1.1m3.85,0h6.61a11,11,0,0,0,11-11V9.3H4.9V33.5a11,11,0,0,0,11,11h6.6M4.9,22.5a4.4,4.4,0,0,0,0,8.8V22.5Zm44,0a4.4,4.4,0,0,1,0,8.8V22.5ZM26.9.5a2.2,2.2,0,1,1-2.2,2.2A2.2,2.2,0,0,1,26.9.5Zm0,8.8V4.9m8.8,16.5H18.1v11H35.7v-11Zm0,0-8.8,5.5-8.8-5.5m26.4-3.3a2.2,2.2,0,0,0-2.2-2.2H11.5a2.21,2.21,0,0,0-2.2,2.2V35.7a2.2,2.2,0,0,0,2.2,2.2H42.3a2.19,2.19,0,0,0,2.2-2.2V18.1ZM23.94,26,18.1,32.4M29.86,26,35.7,32.4"/></g></g></svg>