<svg xmlns="http://www.w3.org/2000/svg" viewBox="0 0 53.8 45"><defs><style>.cls-1{fill:#dd636e;}.cls-1,.cls-2,.cls-3{fill-rule:evenodd;}.cls-2{fill:#def6ff;}.cls-3{fill:#f4dd45;}.cls-4{fill:none;stroke:#000;stroke-linecap:round;stroke-linejoin:round;}</style></defs><title>Asset 18</title><g id="Layer_2" data-name="Layer 2"><g id="Layer_1-2" data-name="Layer 1"><path class="cls-1" d="M26.9.5a22,22,0,1,1-22,22,22,22,0,0,1,22-22Z"/><path class="cls-2" d="M26.9,4.55c9.33,0,16.9,8,16.9,18s-7.57,18-16.9,18-16.9-8-16.9-18S17.58,4.55,26.9,4.55Z"/><path class="cls-3" d="M4.11,20.06A5.56,5.56,0,0,1,6.06,9.3,5.65,5.65,0,0,1,8,9.63L4.11,20.06Zm45.58,0A5.56,5.56,0,0,0,47.75,9.3a5.66,5.66,0,0,0-1.9.33l3.84,10.43Z"/><path class="cls-4" d="M15.13,3.91l.49-.3m3-1.49A21.79,21.79,0,0,1,26.9.5,22,22,0,1,1,12.37,6M26.9,4.9A17.6,17.6,0,1,1,9.3,22.5,17.61,17.61,0,0,1,26.9,4.9ZM4.11,20.06A5.56,5.56,0,0,1,6.06,9.3,5.65,5.65,0,0,1,8,9.63M49.69,20.06A5.56,5.56,0,0,0,47.75,9.3a5.66,5.66,0,0,0-1.9.33M30.16,19.2a3.3,3.3,0,0,0-6.6,0v6.6a3.3,3.3,0,1,0,6.6,0V19.2Zm8.69-3.3V29.1M19,15.9V29.1m14.49-9.9v3.3h6.77M13.58,19.2v3.3h6.76"/></g></g></svg>