<svg xmlns="http://www.w3.org/2000/svg" viewBox="0 0 36.2 53.8"><defs><style>.cls-1{fill:#def6ff;}.cls-1,.cls-3,.cls-4{stroke:#000;stroke-linecap:round;stroke-linejoin:round;}.cls-1,.cls-2,.cls-3{fill-rule:evenodd;}.cls-2{fill:#dd636e;}.cls-3{fill:#aaf4a5;}.cls-4{fill:none;}</style></defs><title>Asset 12</title><g id="Layer_2" data-name="Layer 2"><g id="Layer_1-2" data-name="Layer 1"><polygon class="cls-1" points="0.5 53.3 35.7 53.3 35.7 0.5 0.5 0.5 0.5 53.3 0.5 53.3"/><path class="cls-2" d="M22.5.5H13.7a4.4,4.4,0,0,0,4.4,4.4h0A4.4,4.4,0,0,0,22.5.5Z"/><path class="cls-3" d="M29.1,22.5H7.1V32.83c0,2.72,2.46,4.91,5.5,4.91h11a5.85,5.85,0,0,0,3.89-1.43,4.66,4.66,0,0,0,1.61-3.47V22.5Zm-11-7.28a2.2,2.2,0,1,1-2.2,2.2,2.2,2.2,0,0,1,2.2-2.2Z"/><path class="cls-4" d="M17.55,53.3h1.1m3.85,0H35.7V.5H.5V53.3H13.7M22.5.5H13.7a4.4,4.4,0,0,0,4.4,4.4h0A4.4,4.4,0,0,0,22.5.5ZM4.9,48.9H31.3M4.9,9.3H31.3M29.1,22.5H7.1V32.83c0,2.72,2.46,4.91,5.5,4.91h11a5.85,5.85,0,0,0,3.89-1.43,4.66,4.66,0,0,0,1.61-3.47V22.5ZM18.1,22v-2m0-4.85a2.2,2.2,0,1,1-2.2,2.2,2.2,2.2,0,0,1,2.2-2.2ZM12.52,28.53,15,26.9m8.69,1.63L21.22,26.9m.17,7H14.81"/></g></g></svg>