<svg xmlns="http://www.w3.org/2000/svg" viewBox="0 0 45 53.8"><defs><style>.cls-1{fill:#dd636e;}.cls-1,.cls-2,.cls-3{fill-rule:evenodd;}.cls-2{fill:#62acf6;}.cls-3{fill:#aaf4a5;}.cls-4{fill:none;stroke:#000;stroke-linecap:round;stroke-linejoin:round;}</style></defs><title>Asset 7</title><g id="Layer_2" data-name="Layer 2"><g id="Layer_1-2" data-name="Layer 1"><path class="cls-1" d="M22.5,17.83A10.09,10.09,0,1,1,12.42,27.91,10.08,10.08,0,0,1,22.5,17.83Z"/><path class="cls-2" d="M28.55,27.91a2,2,0,0,0-2-2H18.47a2,2,0,0,0,0,4h8.06a2,2,0,0,0,2-2ZM12.06,26.79A2.54,2.54,0,0,1,13,21.86a2.57,2.57,0,0,1,.87.15l-1.76,4.78Zm20.89,0a2.55,2.55,0,0,0-.9-4.93,2.47,2.47,0,0,0-.86.15L33,26.79Z"/><path class="cls-3" d="M22.5,44.5l4.4,4.4-4.4,4.4V51.1A22,22,0,0,1,9.3,11.51l4.4,2.35A17.6,17.6,0,0,0,22.5,46.7V44.5Zm0-35.2L18.1,4.9,22.5.5V2.7A22,22,0,0,1,35.7,42.3l-4.4-2.36A17.6,17.6,0,0,0,22.5,7.1V9.3Z"/><path class="cls-4" d="M22.5,9.3,18.1,4.9,22.5.5V2.7A22,22,0,0,1,35.7,42.3l-4.4-2.36A17.6,17.6,0,0,0,22.5,7.1V9.3Zm0,8.53A10.09,10.09,0,1,1,12.42,27.91,10.08,10.08,0,0,1,22.5,17.83Zm0-2v3.46m6.05,8.64a2,2,0,0,0-2-2H18.47a2,2,0,0,0,0,4h8.06a2,2,0,0,0,2-2ZM12.06,26.79A2.54,2.54,0,0,1,13,21.86a2.57,2.57,0,0,1,.87.15M33,26.79a2.55,2.55,0,0,0-.9-4.93,2.47,2.47,0,0,0-.86.15M22.5,44.5l4.4,4.4-4.4,4.4V51.1A22,22,0,0,1,9.3,11.51l4.4,2.35A17.6,17.6,0,0,0,22.5,46.7V44.5Z"/></g></g></svg>